<svg xmlns="http://www.w3.org/2000/svg" height="16px" viewBox="0 -960 960 960" width="16px" fill="#c3013a"><path d="M480-316.26q94.35-76.13 141.09-149.29 46.74-73.17 46.74-136.69 0-83.41-52.47-136.65-52.47-53.24-135.36-53.24-82.89 0-135.36 53.24-52.47 53.24-52.47 136.65 0 63.52 46.74 136.69Q385.65-392.39 480-316.26Zm0 87.98q-13.17 0-26.11-4.23-12.93-4.23-23.87-13.19-114-92.52-168.92-181.94-54.93-89.43-54.93-174.6 0-121.19 76.7-198.54T480-878.13q120.43 0 197.13 77.35 76.7 77.35 76.7 198.54 0 85.17-54.93 174.6-54.92 89.42-168.92 181.94-10.94 8.96-23.87 13.19-12.94 4.23-26.11 4.23Zm0-291.24q35.15 0 59.97-24.82 24.81-24.81 24.81-59.96 0-35.16-24.81-59.97-24.82-24.82-59.97-24.82t-59.97 24.82q-24.81 24.81-24.81 59.97 0 35.15 24.81 59.96 24.82 24.82 59.97 24.82ZM244.63-81.87q-17.65 0-30.21-12.67-12.55-12.68-12.55-30.33t12.67-30.21q12.68-12.55 30.33-12.55h470.5q17.65 0 30.21 12.55 12.55 12.56 12.55 30.21t-12.55 30.33q-12.56 12.67-30.21 12.67H244.63ZM480-604.3Z"/></svg>